<?xml version="1.0" encoding="UTF-8" standalone="no"?>
<!DOCTYPE svg PUBLIC "-//W3C//DTD SVG 1.1//EN" "http://www.w3.org/Graphics/SVG/1.1/DTD/svg11.dtd">
<svg width="500.00" height="500.00" viewBox="0.00 0.00 500.00 500.00" xmlns="http://www.w3.org/2000/svg" xmlns:xlink="http://www.w3.org/1999/xlink">
<g stroke-linecap="round" id="Layer_8">
<path d="M29.25,55.71 C39.49,55.71 48.87,50.35 48.87,37.02 C48.87,25.32 40.72,13.83 29.08,13.83 C17.74,13.83 10.95,25.23 10.95,37.64 C10.95,49.78 19.80,55.78 29.25,55.78 C29.25,112.62 35.98,150.67 75.10,150.67 C114.15,150.67 120.03,113.10 120.03,55.43 C129.52,55.43 138.86,49.63 138.86,37.11 C138.86,25.39 132.26,13.97 120.28,13.97 C108.09,13.97 101.92,25.20 101.92,37.59 C101.92,49.09 110.75,55.46 120.06,55.46" fill="none" stroke="rgb(54, 35, 100)" stroke-width="3.00" stroke-opacity="1.00" stroke-linejoin="round"/>
</g>
</svg>
